<svg xmlns="http://www.w3.org/2000/svg" width="35" height="35" viewBox="0 0 35 35">
  <path id="instagram-brands" d="M17.429,40.351A8.974,8.974,0,1,0,26.4,49.325,8.958,8.958,0,0,0,17.429,40.351Zm0,14.808a5.834,5.834,0,1,1,5.833-5.834,5.844,5.844,0,0,1-5.833,5.834ZM28.86,39.984a2.093,2.093,0,1,1-2.093-2.093A2.088,2.088,0,0,1,28.86,39.984ZM34.8,42.109c-.133-2.8-.773-5.287-2.827-7.333s-4.529-2.687-7.332-2.827c-2.889-.164-11.548-.164-14.437,0-2.8.133-5.278.773-7.332,2.819S.189,39.3.048,42.1c-.164,2.89-.164,11.551,0,14.44.133,2.8.773,5.287,2.827,7.333S7.4,66.561,10.206,66.7c2.889.164,11.548.164,14.437,0,2.8-.133,5.286-.773,7.332-2.827s2.686-4.53,2.827-7.333c.164-2.89.164-11.543,0-14.433ZM31.07,59.642a5.906,5.906,0,0,1-3.326,3.327c-2.3.914-7.769.7-10.315.7s-8.019.2-10.315-.7a5.906,5.906,0,0,1-3.326-3.327c-.914-2.3-.7-7.771-.7-10.317s-.2-8.021.7-10.317a5.906,5.906,0,0,1,3.326-3.327c2.3-.914,7.769-.7,10.315-.7s8.019-.2,10.315.7a5.906,5.906,0,0,1,3.326,3.327c.914,2.3.7,7.771.7,10.317S31.983,57.346,31.07,59.642Z" transform="translate(0.075 -31.825)" fill="#fff"/>
</svg>
