<svg xmlns="http://www.w3.org/2000/svg" width="49" height="75" viewBox="0 0 49 75">
  <g id="right-yellow" transform="translate(-553 -132)">
    <g id="Rectangle_4" data-name="Rectangle 4" transform="translate(553 132)" fill="rgba(0,0,0,0.45)" stroke="#fff" stroke-width="1">
      <rect width="49" height="75" rx="3" stroke="none"/>
      <rect x="0.5" y="0.5" width="48" height="74" rx="2.5" fill="none"/>
    </g>
    <path id="chevron-down-solid" d="M16.3,19.47.569,4.8a1.726,1.726,0,0,1,0-2.561L2.4.531a2.044,2.044,0,0,1,2.744,0L17.673,12.151,30.2.527a2.044,2.044,0,0,1,2.744,0l1.835,1.711a1.726,1.726,0,0,1,0,2.561L19.047,19.47a2.044,2.044,0,0,1-2.747,0Z" transform="translate(567.653 187.179) rotate(-90)" fill="#f5c817"/>
  </g>
</svg>
