<svg xmlns="http://www.w3.org/2000/svg" width="53.171" height="35" viewBox="0 0 53.171 35">
  <path id="youtube-brands" d="M66.993,69.476a6.478,6.478,0,0,0-4.7-4.429C58.146,64,41.519,64,41.519,64s-16.627,0-20.774,1.047a6.479,6.479,0,0,0-4.7,4.429c-1.111,3.907-1.111,12.059-1.111,12.059s0,8.152,1.111,12.059a6.391,6.391,0,0,0,4.7,4.359C24.892,99,41.519,99,41.519,99s16.627,0,20.774-1.047a6.391,6.391,0,0,0,4.7-4.359C68.1,89.687,68.1,81.535,68.1,81.535S68.1,73.383,66.993,69.476ZM36.081,88.937v-14.8l13.9,7.4Z" transform="translate(-14.933 -64)" fill="#fff"/>
</svg>
